<mxfile host="app.diagrams.net" modified="2023-11-24T23:35:13.784Z" agent="Mozilla/5.0 (Windows NT 10.0; Win64; x64) AppleWebKit/537.36 (KHTML, like Gecko) Chrome/119.0.0.0 Safari/537.36 Edg/119.0.0.0" etag="Em5IOjAbn93ByNmEnYBu" version="22.1.4" type="device">
  <diagram name="Page-1" id="mUyAikBEkfKeO0XjISf7">
    <mxGraphModel dx="1106" dy="623" grid="1" gridSize="10" guides="1" tooltips="1" connect="1" arrows="1" fold="1" page="1" pageScale="1" pageWidth="850" pageHeight="1100" math="0" shadow="0">
      <root>
        <mxCell id="0" />
        <mxCell id="1" parent="0" />
        <mxCell id="HVUczFYNgCfFE6jhYIkl-3" value="" style="sketch=0;html=1;aspect=fixed;strokeColor=none;shadow=0;fillColor=#3B8DF1;verticalAlign=top;labelPosition=center;verticalLabelPosition=bottom;shape=mxgraph.gcp2.phone_android" parent="1" vertex="1">
          <mxGeometry x="282" y="45" width="285.6" height="510" as="geometry" />
        </mxCell>
        <mxCell id="K4w1h05GAyGdZp1fGe20-2" value="" style="rounded=0;whiteSpace=wrap;html=1;" parent="1" vertex="1">
          <mxGeometry x="307.5" y="220" width="242.5" height="160" as="geometry" />
        </mxCell>
        <mxCell id="HjpVoIGLq1_S5kuuG2Tt-1" value="Lista de sponsors" style="rounded=0;whiteSpace=wrap;html=1;" vertex="1" parent="1">
          <mxGeometry x="370" y="140" width="120" height="30" as="geometry" />
        </mxCell>
        <mxCell id="HjpVoIGLq1_S5kuuG2Tt-2" value="Adicionar sponsor" style="rounded=0;whiteSpace=wrap;html=1;" vertex="1" parent="1">
          <mxGeometry x="307.5" y="190" width="115" height="20" as="geometry" />
        </mxCell>
        <mxCell id="HjpVoIGLq1_S5kuuG2Tt-3" value="" style="rounded=0;whiteSpace=wrap;html=1;" vertex="1" parent="1">
          <mxGeometry x="307.5" y="220" width="242.5" height="30" as="geometry" />
        </mxCell>
        <mxCell id="HjpVoIGLq1_S5kuuG2Tt-4" value="Nome" style="text;html=1;strokeColor=none;fillColor=none;align=center;verticalAlign=middle;whiteSpace=wrap;rounded=0;" vertex="1" parent="1">
          <mxGeometry x="300" y="220" width="60" height="30" as="geometry" />
        </mxCell>
        <mxCell id="HjpVoIGLq1_S5kuuG2Tt-5" value="Animal" style="text;html=1;strokeColor=none;fillColor=none;align=center;verticalAlign=middle;whiteSpace=wrap;rounded=0;" vertex="1" parent="1">
          <mxGeometry x="340" y="220" width="60" height="30" as="geometry" />
        </mxCell>
        <mxCell id="HjpVoIGLq1_S5kuuG2Tt-6" value="Valor" style="text;html=1;strokeColor=none;fillColor=none;align=center;verticalAlign=middle;whiteSpace=wrap;rounded=0;" vertex="1" parent="1">
          <mxGeometry x="380" y="220" width="60" height="30" as="geometry" />
        </mxCell>
        <mxCell id="HjpVoIGLq1_S5kuuG2Tt-7" value="Data" style="text;html=1;strokeColor=none;fillColor=none;align=center;verticalAlign=middle;whiteSpace=wrap;rounded=0;" vertex="1" parent="1">
          <mxGeometry x="410" y="220" width="60" height="30" as="geometry" />
        </mxCell>
        <mxCell id="HjpVoIGLq1_S5kuuG2Tt-8" value="Editar" style="text;html=1;strokeColor=none;fillColor=none;align=center;verticalAlign=middle;whiteSpace=wrap;rounded=0;" vertex="1" parent="1">
          <mxGeometry x="470" y="220" width="60" height="30" as="geometry" />
        </mxCell>
        <mxCell id="HjpVoIGLq1_S5kuuG2Tt-11" value="" style="endArrow=none;html=1;rounded=0;" edge="1" parent="1">
          <mxGeometry width="50" height="50" relative="1" as="geometry">
            <mxPoint x="350" y="250" as="sourcePoint" />
            <mxPoint x="350" y="220" as="targetPoint" />
          </mxGeometry>
        </mxCell>
        <mxCell id="HjpVoIGLq1_S5kuuG2Tt-15" value="" style="endArrow=none;html=1;rounded=0;entryX=0.25;entryY=0;entryDx=0;entryDy=0;exitX=0.25;exitY=1;exitDx=0;exitDy=0;" edge="1" parent="1" source="HjpVoIGLq1_S5kuuG2Tt-6" target="HjpVoIGLq1_S5kuuG2Tt-6">
          <mxGeometry width="50" height="50" relative="1" as="geometry">
            <mxPoint x="370" y="270" as="sourcePoint" />
            <mxPoint x="370" y="240" as="targetPoint" />
          </mxGeometry>
        </mxCell>
        <mxCell id="HjpVoIGLq1_S5kuuG2Tt-16" value="" style="endArrow=none;html=1;rounded=0;entryX=0.25;entryY=0;entryDx=0;entryDy=0;exitX=0.25;exitY=1;exitDx=0;exitDy=0;" edge="1" parent="1" source="HjpVoIGLq1_S5kuuG2Tt-7" target="HjpVoIGLq1_S5kuuG2Tt-7">
          <mxGeometry width="50" height="50" relative="1" as="geometry">
            <mxPoint x="405" y="260" as="sourcePoint" />
            <mxPoint x="405" y="230" as="targetPoint" />
          </mxGeometry>
        </mxCell>
        <mxCell id="HjpVoIGLq1_S5kuuG2Tt-17" value="" style="endArrow=none;html=1;rounded=0;entryX=0;entryY=0;entryDx=0;entryDy=0;exitX=0;exitY=0.75;exitDx=0;exitDy=0;" edge="1" parent="1" source="HjpVoIGLq1_S5kuuG2Tt-8" target="HjpVoIGLq1_S5kuuG2Tt-8">
          <mxGeometry width="50" height="50" relative="1" as="geometry">
            <mxPoint x="405" y="260" as="sourcePoint" />
            <mxPoint x="405" y="230" as="targetPoint" />
          </mxGeometry>
        </mxCell>
        <mxCell id="HjpVoIGLq1_S5kuuG2Tt-18" value="" style="rounded=0;whiteSpace=wrap;html=1;" vertex="1" parent="1">
          <mxGeometry x="307.5" y="250" width="242.5" height="60" as="geometry" />
        </mxCell>
        <mxCell id="HjpVoIGLq1_S5kuuG2Tt-20" value="Luis bastos" style="text;html=1;strokeColor=none;fillColor=none;align=center;verticalAlign=middle;whiteSpace=wrap;rounded=0;" vertex="1" parent="1">
          <mxGeometry x="300" y="250" width="60" height="30" as="geometry" />
        </mxCell>
        <mxCell id="HjpVoIGLq1_S5kuuG2Tt-21" value="CÃ£o" style="text;html=1;strokeColor=none;fillColor=none;align=center;verticalAlign=middle;whiteSpace=wrap;rounded=0;" vertex="1" parent="1">
          <mxGeometry x="340" y="250" width="60" height="30" as="geometry" />
        </mxCell>
        <mxCell id="HjpVoIGLq1_S5kuuG2Tt-22" value="40" style="text;html=1;strokeColor=none;fillColor=none;align=center;verticalAlign=middle;whiteSpace=wrap;rounded=0;" vertex="1" parent="1">
          <mxGeometry x="380" y="250" width="60" height="30" as="geometry" />
        </mxCell>
        <mxCell id="HjpVoIGLq1_S5kuuG2Tt-25" value="2023-11-22" style="text;html=1;strokeColor=none;fillColor=none;align=center;verticalAlign=middle;whiteSpace=wrap;rounded=0;" vertex="1" parent="1">
          <mxGeometry x="420" y="250" width="70" height="30" as="geometry" />
        </mxCell>
        <mxCell id="HjpVoIGLq1_S5kuuG2Tt-27" value="Ver" style="rounded=0;whiteSpace=wrap;html=1;" vertex="1" parent="1">
          <mxGeometry x="490" y="255" width="20" height="20" as="geometry" />
        </mxCell>
        <mxCell id="HjpVoIGLq1_S5kuuG2Tt-29" value="Editar" style="rounded=0;whiteSpace=wrap;html=1;" vertex="1" parent="1">
          <mxGeometry x="510" y="255" width="30" height="20" as="geometry" />
        </mxCell>
        <mxCell id="HjpVoIGLq1_S5kuuG2Tt-30" value="Remover" style="rounded=0;whiteSpace=wrap;html=1;" vertex="1" parent="1">
          <mxGeometry x="480" y="280" width="55" height="20" as="geometry" />
        </mxCell>
      </root>
    </mxGraphModel>
  </diagram>
</mxfile>
